<svg xmlns="http://www.w3.org/2000/svg" width="241" height="60" viewBox="0 0 241 60">
  <defs>
    <style>
      .cls-1 {
        fill: #000000;
      }
    </style>
  </defs>
  <path id="Kloths" class="cls-1" d="M220.686,28.68l5.2,0.852a32.56,32.56,0,0,1,7.155,1.874,14.926,14.926,0,0,1,4.643,2.853A9.829,9.829,0,0,1,240.193,38a13.38,13.38,0,0,1,.766,4.641,17.121,17.121,0,0,1-.979,5.748,12.39,12.39,0,0,1-3.152,4.854,15.623,15.623,0,0,1-5.537,3.321,24.009,24.009,0,0,1-8.22,1.235,34.734,34.734,0,0,1-6.261-.554,38.712,38.712,0,0,1-5.622-1.448,27.306,27.306,0,0,1-4.686-2.087,25.215,25.215,0,0,1-3.535-2.385l4.345-9.112a18.18,18.18,0,0,0,2.6,1.575,25.517,25.517,0,0,0,3.45,1.448,32.815,32.815,0,0,0,3.918,1.065,19.941,19.941,0,0,0,4.089.426,8.5,8.5,0,0,0,4.515-.937,2.9,2.9,0,0,0,1.448-2.555,2.223,2.223,0,0,0-1.108-2.087,11.127,11.127,0,0,0-3.322-1.065l-4.089-.681q-7.24-1.192-11.159-4.556a11.34,11.34,0,0,1-3.918-9.07,13.463,13.463,0,0,1,1.022-5.195,11.715,11.715,0,0,1,3.152-4.343,15.143,15.143,0,0,1,5.452-2.938,26.435,26.435,0,0,1,8.007-1.064,38.444,38.444,0,0,1,5.835.426,35.981,35.981,0,0,1,5.111,1.15,33.433,33.433,0,0,1,4.174,1.576,19.263,19.263,0,0,1,3.024,1.7l-3.492,9.112a13.108,13.108,0,0,0-2.6-1.277,27.934,27.934,0,0,0-3.365-1.022,37.4,37.4,0,0,0-3.706-.681,27.472,27.472,0,0,0-3.62-.255,9.162,9.162,0,0,0-4.089.681,2.131,2.131,0,0,0-1.278,1.959,2.541,2.541,0,0,0,1.023,2.086A4.615,4.615,0,0,0,220.686,28.68Zm-37.31,24.7V31.916a7.266,7.266,0,0,0-1.874-5.365,7.391,7.391,0,0,0-5.452-1.874,11.949,11.949,0,0,0-2.9.341,9.118,9.118,0,0,0-2.385.937V56.1h-13.63V0.747h13.545V14.969a10.343,10.343,0,0,1,1.916-.6c0.767-.17,1.589-0.326,2.471-0.468s1.788-.255,2.725-0.341,1.8-.128,2.6-0.128a19.029,19.029,0,0,1,6.729,1.15,14.233,14.233,0,0,1,5.239,3.364,15.217,15.217,0,0,1,3.365,5.408,20.744,20.744,0,0,1,1.192,7.281V47.415l3.493,3.917-10.307,8.942Zm-42.208-8.942a6.092,6.092,0,0,0,3.79,1.192,17.168,17.168,0,0,0,3.024-.3,7.271,7.271,0,0,0,2.6-.894l2.3,10.049a15.843,15.843,0,0,1-4.9,1.7,30.215,30.215,0,0,1-5.494.511,24.744,24.744,0,0,1-6.857-.894,13.921,13.921,0,0,1-5.367-2.853,12.881,12.881,0,0,1-3.492-5.024,20.081,20.081,0,0,1-1.236-7.494V24.081h-7.07V13.947h7.411V1.939h13.63V13.947h11.585V24.166h-11.5v15.84Q139.592,43.244,141.168,44.435Zm-33.051,6.217a19.886,19.886,0,0,1-7.155,4.6,26.366,26.366,0,0,1-9.5,1.618,26.7,26.7,0,0,1-9.541-1.618,19.947,19.947,0,0,1-7.241-4.641,20.648,20.648,0,0,1-4.6-7.281,26.658,26.658,0,0,1-1.618-9.538,25.638,25.638,0,0,1,1.618-9.41,19.066,19.066,0,0,1,4.557-6.941,19.63,19.63,0,0,1,7.2-4.3,30.875,30.875,0,0,1,18.953,0,20.124,20.124,0,0,1,7.2,4.3,18.761,18.761,0,0,1,4.6,6.983,26.239,26.239,0,0,1,1.619,9.538,27.069,27.069,0,0,1-1.576,9.453A20.063,20.063,0,0,1,108.117,50.651ZM97.81,25.657a9.055,9.055,0,0,0-13.033,0q-2.428,2.768-2.428,8.218,0,5.365,2.428,8.474a8.014,8.014,0,0,0,6.687,3.108,7.558,7.558,0,0,0,6.517-3.108q2.256-3.108,2.258-8.388Q100.238,28.425,97.81,25.657ZM48.872,0.747H62.5V56.1H48.872V0.747ZM33.71,57.209L14.458,35.833V56.1H-0.023V1.939H14.458V23.485L32.773,1.428,43.251,10.2,26.129,29.787,43.762,47.5Z" transform="translate(0 -0.75)"/>
</svg>
